%
M48
M72
T01C0.0118
T02C0.0236
T03C0.1417
%
T01
X110748Y4122
X123543Y4161
X146181Y4161
X162165Y4279
X171535Y4279
X187362Y4122
X197126Y4200
X205630Y4319
X215236Y4279
X218307Y4319
X222716Y4240
X238897Y4200
X248976Y4161
X264724Y4240
X274409Y4240
X290472Y4240
X303504Y4240
X319448Y4240
X323149Y4397
X342441Y4240
X352795Y4240
X368819Y4279
X378149Y4279
X380315Y4240
X323031Y5421
X323031Y5933
X322283Y6248
X318543Y6366
X320315Y6444
X322283Y6681
X326850Y6720
X322283Y7114
X325551Y7193
X322283Y7586
X325551Y7744
X322283Y8098
X325511Y8256
X352795Y7193
X368819Y7704
X380315Y8256
X378189Y10381
X370000Y10303
X357637Y10421
X343779Y10303
X331614Y10381
X320748Y10421
X317480Y10303
X319685Y9712
X321378Y9476
X291732Y10303
X279330Y10381
X265787Y10303
X253819Y10421
X240039Y10303
X227756Y10421
X217165Y10342
X213937Y10303
X202047Y10421
X188464Y10303
X171693Y10381
X162952Y10303
X151141Y10381
X137323Y10303
X111889Y10303
X99803Y10421
X90433Y10381
X86141Y10303
X74330Y10421
X60551Y10303
X48543Y10381
X35118Y10342
X34448Y10342
X27795Y10342
X25590Y10381
X18110Y10381
X13228Y10381
X9409Y10421
X5236Y10460
X31181Y9476
X27716Y9161
X16102Y8492
X15118Y8531
X12244Y8492
X21929Y8374
X30748Y8334
X34291Y8334
X35748Y7941
X36653Y7941
X32303Y7921
X33937Y7626
X35905Y7586
X32126Y7350
X30748Y7311
X36574Y7232
X35787Y6956
X36574Y6759
X38425Y6838
X31063Y6878
X29015Y6563
X22834Y6956
X15511Y6956
X13504Y6956
X8700Y6622
X4842Y7193
X16102Y7311
X22480Y7271
X21889Y7586
X20708Y7822
X19055Y7704
X43071Y7311
X59330Y7311
X68897Y6878
X85177Y6641
X92441Y6799
X88425Y6878
X88425Y7311
X92441Y7311
X92441Y7783
X88425Y7783
X88385Y8295
X123543Y7311
X110748Y6799
X92795Y5933
X92834Y5421
X88425Y6326
X87323Y6366
X38740Y6484
X38228Y6444
X27992Y6208
X38189Y5933
X38425Y5421
X19724Y4673
X22441Y4279
X26141Y4319
X33779Y4358
X36850Y4397
X43031Y4161
X59527Y4161
X68897Y4161
X85157Y4161
X88307Y4358
X91023Y4319
X94291Y4200
X146181Y6956
X171574Y6838
X188897Y5972
X197834Y5972
X201417Y5854
X204567Y5893
X202834Y5618
X203582Y5342
X199567Y5027
X207834Y4948
X211063Y5381
X209567Y5539
X211574Y5893
X212559Y5893
X215039Y6011
X221063Y5933
X220826Y5421
X214763Y6641
X221653Y6799
X220945Y7311
X220472Y7783
X215078Y7862
X214330Y7822
X212834Y7862
X216811Y8334
X248937Y7311
X238897Y6799
X264724Y7744
X274448Y8059
X290472Y7547
X303504Y7074
X203031Y9555
X164409Y9043
X13464Y5972
X8504Y4319
T02
X5866Y8413
X5551Y9437
X190511Y7822
X213425Y7035
X205118Y6838
X210590Y5618
X198976Y5027
X195000Y4240
X193425Y4240
X191968Y4240
X190708Y4240
X195984Y10500
T03
X209330Y9279
X132559Y8925
X23760Y8944
X312637Y8925
X383641Y7389
M30
