G75*
%MOIN*%
%OFA0B0*%
%FSLAX24Y24*%
%IPPOS*%
%LPD*%
%AMOC8*
5,1,8,0,0,1.08239X$1,22.5*
%
%ADD10C,0.0000*%
D10*
X003385Y003413D02*
X003385Y011287D01*
X385275Y011287D01*
X385275Y003413D01*
X003385Y003413D01*
X023051Y008944D02*
X023053Y008997D01*
X023059Y009050D01*
X023069Y009102D01*
X023082Y009153D01*
X023100Y009203D01*
X023121Y009252D01*
X023146Y009299D01*
X023174Y009343D01*
X023206Y009386D01*
X023240Y009426D01*
X023278Y009464D01*
X023318Y009498D01*
X023361Y009530D01*
X023406Y009558D01*
X023452Y009583D01*
X023501Y009604D01*
X023551Y009622D01*
X023602Y009635D01*
X023654Y009645D01*
X023707Y009651D01*
X023760Y009653D01*
X023813Y009651D01*
X023866Y009645D01*
X023918Y009635D01*
X023969Y009622D01*
X024019Y009604D01*
X024068Y009583D01*
X024115Y009558D01*
X024159Y009530D01*
X024202Y009498D01*
X024242Y009464D01*
X024280Y009426D01*
X024314Y009386D01*
X024346Y009343D01*
X024374Y009298D01*
X024399Y009252D01*
X024420Y009203D01*
X024438Y009153D01*
X024451Y009102D01*
X024461Y009050D01*
X024467Y008997D01*
X024469Y008944D01*
X024467Y008891D01*
X024461Y008838D01*
X024451Y008786D01*
X024438Y008735D01*
X024420Y008685D01*
X024399Y008636D01*
X024374Y008589D01*
X024346Y008545D01*
X024314Y008502D01*
X024280Y008462D01*
X024242Y008424D01*
X024202Y008390D01*
X024159Y008358D01*
X024114Y008330D01*
X024068Y008305D01*
X024019Y008284D01*
X023969Y008266D01*
X023918Y008253D01*
X023866Y008243D01*
X023813Y008237D01*
X023760Y008235D01*
X023707Y008237D01*
X023654Y008243D01*
X023602Y008253D01*
X023551Y008266D01*
X023501Y008284D01*
X023452Y008305D01*
X023405Y008330D01*
X023361Y008358D01*
X023318Y008390D01*
X023278Y008424D01*
X023240Y008462D01*
X023206Y008502D01*
X023174Y008545D01*
X023146Y008590D01*
X023121Y008636D01*
X023100Y008685D01*
X023082Y008735D01*
X023069Y008786D01*
X023059Y008838D01*
X023053Y008891D01*
X023051Y008944D01*
X131850Y008925D02*
X131852Y008978D01*
X131858Y009031D01*
X131868Y009083D01*
X131881Y009134D01*
X131899Y009184D01*
X131920Y009233D01*
X131945Y009280D01*
X131973Y009324D01*
X132005Y009367D01*
X132039Y009407D01*
X132077Y009445D01*
X132117Y009479D01*
X132160Y009511D01*
X132205Y009539D01*
X132251Y009564D01*
X132300Y009585D01*
X132350Y009603D01*
X132401Y009616D01*
X132453Y009626D01*
X132506Y009632D01*
X132559Y009634D01*
X132612Y009632D01*
X132665Y009626D01*
X132717Y009616D01*
X132768Y009603D01*
X132818Y009585D01*
X132867Y009564D01*
X132914Y009539D01*
X132958Y009511D01*
X133001Y009479D01*
X133041Y009445D01*
X133079Y009407D01*
X133113Y009367D01*
X133145Y009324D01*
X133173Y009279D01*
X133198Y009233D01*
X133219Y009184D01*
X133237Y009134D01*
X133250Y009083D01*
X133260Y009031D01*
X133266Y008978D01*
X133268Y008925D01*
X133266Y008872D01*
X133260Y008819D01*
X133250Y008767D01*
X133237Y008716D01*
X133219Y008666D01*
X133198Y008617D01*
X133173Y008570D01*
X133145Y008526D01*
X133113Y008483D01*
X133079Y008443D01*
X133041Y008405D01*
X133001Y008371D01*
X132958Y008339D01*
X132913Y008311D01*
X132867Y008286D01*
X132818Y008265D01*
X132768Y008247D01*
X132717Y008234D01*
X132665Y008224D01*
X132612Y008218D01*
X132559Y008216D01*
X132506Y008218D01*
X132453Y008224D01*
X132401Y008234D01*
X132350Y008247D01*
X132300Y008265D01*
X132251Y008286D01*
X132204Y008311D01*
X132160Y008339D01*
X132117Y008371D01*
X132077Y008405D01*
X132039Y008443D01*
X132005Y008483D01*
X131973Y008526D01*
X131945Y008571D01*
X131920Y008617D01*
X131899Y008666D01*
X131881Y008716D01*
X131868Y008767D01*
X131858Y008819D01*
X131852Y008872D01*
X131850Y008925D01*
X208621Y009279D02*
X208623Y009332D01*
X208629Y009385D01*
X208639Y009437D01*
X208652Y009488D01*
X208670Y009538D01*
X208691Y009587D01*
X208716Y009634D01*
X208744Y009678D01*
X208776Y009721D01*
X208810Y009761D01*
X208848Y009799D01*
X208888Y009833D01*
X208931Y009865D01*
X208976Y009893D01*
X209022Y009918D01*
X209071Y009939D01*
X209121Y009957D01*
X209172Y009970D01*
X209224Y009980D01*
X209277Y009986D01*
X209330Y009988D01*
X209383Y009986D01*
X209436Y009980D01*
X209488Y009970D01*
X209539Y009957D01*
X209589Y009939D01*
X209638Y009918D01*
X209685Y009893D01*
X209729Y009865D01*
X209772Y009833D01*
X209812Y009799D01*
X209850Y009761D01*
X209884Y009721D01*
X209916Y009678D01*
X209944Y009633D01*
X209969Y009587D01*
X209990Y009538D01*
X210008Y009488D01*
X210021Y009437D01*
X210031Y009385D01*
X210037Y009332D01*
X210039Y009279D01*
X210037Y009226D01*
X210031Y009173D01*
X210021Y009121D01*
X210008Y009070D01*
X209990Y009020D01*
X209969Y008971D01*
X209944Y008924D01*
X209916Y008880D01*
X209884Y008837D01*
X209850Y008797D01*
X209812Y008759D01*
X209772Y008725D01*
X209729Y008693D01*
X209684Y008665D01*
X209638Y008640D01*
X209589Y008619D01*
X209539Y008601D01*
X209488Y008588D01*
X209436Y008578D01*
X209383Y008572D01*
X209330Y008570D01*
X209277Y008572D01*
X209224Y008578D01*
X209172Y008588D01*
X209121Y008601D01*
X209071Y008619D01*
X209022Y008640D01*
X208975Y008665D01*
X208931Y008693D01*
X208888Y008725D01*
X208848Y008759D01*
X208810Y008797D01*
X208776Y008837D01*
X208744Y008880D01*
X208716Y008925D01*
X208691Y008971D01*
X208670Y009020D01*
X208652Y009070D01*
X208639Y009121D01*
X208629Y009173D01*
X208623Y009226D01*
X208621Y009279D01*
X311928Y008925D02*
X311930Y008978D01*
X311936Y009031D01*
X311946Y009083D01*
X311959Y009134D01*
X311977Y009184D01*
X311998Y009233D01*
X312023Y009280D01*
X312051Y009324D01*
X312083Y009367D01*
X312117Y009407D01*
X312155Y009445D01*
X312195Y009479D01*
X312238Y009511D01*
X312283Y009539D01*
X312329Y009564D01*
X312378Y009585D01*
X312428Y009603D01*
X312479Y009616D01*
X312531Y009626D01*
X312584Y009632D01*
X312637Y009634D01*
X312690Y009632D01*
X312743Y009626D01*
X312795Y009616D01*
X312846Y009603D01*
X312896Y009585D01*
X312945Y009564D01*
X312992Y009539D01*
X313036Y009511D01*
X313079Y009479D01*
X313119Y009445D01*
X313157Y009407D01*
X313191Y009367D01*
X313223Y009324D01*
X313251Y009279D01*
X313276Y009233D01*
X313297Y009184D01*
X313315Y009134D01*
X313328Y009083D01*
X313338Y009031D01*
X313344Y008978D01*
X313346Y008925D01*
X313344Y008872D01*
X313338Y008819D01*
X313328Y008767D01*
X313315Y008716D01*
X313297Y008666D01*
X313276Y008617D01*
X313251Y008570D01*
X313223Y008526D01*
X313191Y008483D01*
X313157Y008443D01*
X313119Y008405D01*
X313079Y008371D01*
X313036Y008339D01*
X312991Y008311D01*
X312945Y008286D01*
X312896Y008265D01*
X312846Y008247D01*
X312795Y008234D01*
X312743Y008224D01*
X312690Y008218D01*
X312637Y008216D01*
X312584Y008218D01*
X312531Y008224D01*
X312479Y008234D01*
X312428Y008247D01*
X312378Y008265D01*
X312329Y008286D01*
X312282Y008311D01*
X312238Y008339D01*
X312195Y008371D01*
X312155Y008405D01*
X312117Y008443D01*
X312083Y008483D01*
X312051Y008526D01*
X312023Y008571D01*
X311998Y008617D01*
X311977Y008666D01*
X311959Y008716D01*
X311946Y008767D01*
X311936Y008819D01*
X311930Y008872D01*
X311928Y008925D01*
X382932Y007389D02*
X382934Y007442D01*
X382940Y007495D01*
X382950Y007547D01*
X382963Y007598D01*
X382981Y007648D01*
X383002Y007697D01*
X383027Y007744D01*
X383055Y007788D01*
X383087Y007831D01*
X383121Y007871D01*
X383159Y007909D01*
X383199Y007943D01*
X383242Y007975D01*
X383287Y008003D01*
X383333Y008028D01*
X383382Y008049D01*
X383432Y008067D01*
X383483Y008080D01*
X383535Y008090D01*
X383588Y008096D01*
X383641Y008098D01*
X383694Y008096D01*
X383747Y008090D01*
X383799Y008080D01*
X383850Y008067D01*
X383900Y008049D01*
X383949Y008028D01*
X383996Y008003D01*
X384040Y007975D01*
X384083Y007943D01*
X384123Y007909D01*
X384161Y007871D01*
X384195Y007831D01*
X384227Y007788D01*
X384255Y007743D01*
X384280Y007697D01*
X384301Y007648D01*
X384319Y007598D01*
X384332Y007547D01*
X384342Y007495D01*
X384348Y007442D01*
X384350Y007389D01*
X384348Y007336D01*
X384342Y007283D01*
X384332Y007231D01*
X384319Y007180D01*
X384301Y007130D01*
X384280Y007081D01*
X384255Y007034D01*
X384227Y006990D01*
X384195Y006947D01*
X384161Y006907D01*
X384123Y006869D01*
X384083Y006835D01*
X384040Y006803D01*
X383995Y006775D01*
X383949Y006750D01*
X383900Y006729D01*
X383850Y006711D01*
X383799Y006698D01*
X383747Y006688D01*
X383694Y006682D01*
X383641Y006680D01*
X383588Y006682D01*
X383535Y006688D01*
X383483Y006698D01*
X383432Y006711D01*
X383382Y006729D01*
X383333Y006750D01*
X383286Y006775D01*
X383242Y006803D01*
X383199Y006835D01*
X383159Y006869D01*
X383121Y006907D01*
X383087Y006947D01*
X383055Y006990D01*
X383027Y007035D01*
X383002Y007081D01*
X382981Y007130D01*
X382963Y007180D01*
X382950Y007231D01*
X382940Y007283D01*
X382934Y007336D01*
X382932Y007389D01*
M02*
