G75*
%MOIN*%
%OFA0B0*%
%FSLAX24Y24*%
%IPPOS*%
%LPD*%
%AMOC8*
5,1,8,0,0,1.08239X$1,22.5*
%
%ADD10C,0.0500*%
%ADD11C,0.0197*%
%ADD12C,0.0160*%
%ADD13C,0.0079*%
%ADD14C,0.0276*%
D10*
X190708Y004240D03*
X191968Y004240D03*
X193425Y004240D03*
X195000Y004240D03*
X198976Y005027D03*
X210590Y005618D03*
X205118Y006838D03*
X213425Y007035D03*
X190511Y007822D03*
X195984Y010500D03*
X005866Y008413D03*
X005551Y009437D03*
D11*
X005708Y009437D01*
X006023Y009122D01*
X021220Y009122D01*
X021456Y008885D01*
X021456Y005106D01*
X021653Y004909D01*
X186929Y004909D01*
X189842Y007822D01*
X190511Y007822D01*
X195669Y007822D01*
X196653Y006838D01*
X205118Y006838D01*
X208779Y006838D01*
X208937Y006996D01*
X213385Y006996D01*
X213425Y007035D01*
X211574Y005381D02*
X211220Y005736D01*
X210708Y005736D01*
X210590Y005618D01*
X211574Y005381D02*
X211574Y004476D01*
X198976Y004515D02*
X198937Y004476D01*
X198976Y004515D02*
X198976Y005027D01*
X195118Y004240D02*
X195000Y004240D01*
X193543Y004240D02*
X193425Y004240D01*
X192086Y004240D02*
X191968Y004240D01*
X191063Y004240D02*
X190708Y004240D01*
D12*
X020315Y003893D02*
X020315Y008137D01*
X005157Y008137D01*
X005157Y008807D01*
X021102Y008807D01*
X021102Y004594D01*
X381023Y004594D01*
X381023Y003893D01*
X020315Y003893D01*
X020315Y004047D02*
X381023Y004047D01*
X381023Y004205D02*
X020315Y004205D01*
X020315Y004364D02*
X381023Y004364D01*
X381023Y004522D02*
X020315Y004522D01*
X020315Y004681D02*
X021102Y004681D01*
X021102Y004839D02*
X020315Y004839D01*
X020315Y004998D02*
X021102Y004998D01*
X021102Y005156D02*
X020315Y005156D01*
X020315Y005315D02*
X021102Y005315D01*
X021102Y005473D02*
X020315Y005473D01*
X020315Y005632D02*
X021102Y005632D01*
X021102Y005790D02*
X020315Y005790D01*
X020315Y005949D02*
X021102Y005949D01*
X021102Y006107D02*
X020315Y006107D01*
X020315Y006266D02*
X021102Y006266D01*
X021102Y006424D02*
X020315Y006424D01*
X020315Y006583D02*
X021102Y006583D01*
X021102Y006741D02*
X020315Y006741D01*
X020315Y006900D02*
X021102Y006900D01*
X021102Y007058D02*
X020315Y007058D01*
X020315Y007217D02*
X021102Y007217D01*
X021102Y007375D02*
X020315Y007375D01*
X020315Y007534D02*
X021102Y007534D01*
X021102Y007692D02*
X020315Y007692D01*
X020315Y007851D02*
X021102Y007851D01*
X021102Y008009D02*
X020315Y008009D01*
X021102Y008168D02*
X005157Y008168D01*
X005157Y008326D02*
X021102Y008326D01*
X021102Y008485D02*
X005157Y008485D01*
X005157Y008644D02*
X021102Y008644D01*
X021102Y008802D02*
X005157Y008802D01*
X004763Y010067D02*
X004763Y010807D01*
X378700Y010807D01*
X378700Y010067D01*
X312969Y010067D01*
X312794Y010113D01*
X312481Y010113D01*
X312306Y010067D01*
X210224Y010067D01*
X210060Y010230D01*
X209789Y010387D01*
X209487Y010468D01*
X209174Y010468D01*
X208872Y010387D01*
X004763Y010387D01*
X004763Y010229D02*
X208599Y010229D01*
X208601Y010230D02*
X208437Y010067D01*
X132890Y010067D01*
X132715Y010113D01*
X132402Y010113D01*
X132227Y010067D01*
X024165Y010067D01*
X023916Y010133D01*
X023603Y010133D01*
X023354Y010067D01*
X004763Y010067D01*
X004763Y010070D02*
X023367Y010070D01*
X024152Y010070D02*
X132240Y010070D01*
X132877Y010070D02*
X208440Y010070D01*
X208601Y010230D02*
X208872Y010387D01*
X209788Y010387D02*
X378700Y010387D01*
X378700Y010229D02*
X210062Y010229D01*
X210221Y010070D02*
X312319Y010070D01*
X312956Y010070D02*
X378700Y010070D01*
X378700Y010546D02*
X004763Y010546D01*
X004763Y010704D02*
X378700Y010704D01*
D13*
X321378Y009476D02*
X320669Y009476D01*
X320433Y009712D01*
X319685Y009712D01*
X325511Y008256D02*
X380315Y008256D01*
X368819Y007704D02*
X368779Y007744D01*
X325551Y007744D01*
X322283Y007586D02*
X318543Y007586D01*
X317952Y006996D01*
X304212Y006996D01*
X303661Y007547D01*
X290472Y007547D01*
X303504Y007074D02*
X303858Y006720D01*
X318071Y006720D01*
X318464Y007114D01*
X322283Y007114D01*
X325551Y007193D02*
X352795Y007193D01*
X326850Y006720D02*
X326811Y006681D01*
X322283Y006681D01*
X320551Y006681D01*
X320315Y006444D01*
X318543Y006366D02*
X220945Y006366D01*
X218976Y008334D01*
X216811Y008334D01*
X215078Y007862D02*
X214527Y008413D01*
X212677Y008413D01*
X212323Y008059D01*
X197165Y008059D01*
X196181Y009043D01*
X164409Y009043D01*
X187008Y005421D02*
X189842Y008256D01*
X195708Y008256D01*
X196693Y007271D01*
X212952Y007271D01*
X213110Y007429D01*
X213937Y007429D01*
X214094Y007271D01*
X218976Y007271D01*
X220826Y005421D01*
X323031Y005421D01*
X323031Y005933D02*
X221063Y005933D01*
X219527Y007468D01*
X214173Y007468D01*
X214015Y007626D01*
X213031Y007626D01*
X212874Y007468D01*
X196811Y007468D01*
X195826Y008452D01*
X189763Y008452D01*
X187244Y005933D01*
X092795Y005933D01*
X038189Y005933D01*
X023425Y005933D01*
X022480Y006878D01*
X022480Y007271D01*
X022952Y007350D02*
X021929Y008374D01*
X015354Y008531D02*
X015118Y008531D01*
X009134Y008413D02*
X009134Y004948D01*
X008504Y004319D01*
X017441Y006956D02*
X019724Y004673D01*
X022362Y004279D02*
X022441Y004279D01*
X026023Y004319D02*
X026141Y004319D01*
X023543Y005421D02*
X038425Y005421D01*
X092834Y005421D01*
X187008Y005421D01*
X188897Y005972D02*
X189311Y006385D01*
X189370Y006444D01*
X204803Y006444D01*
X204960Y006287D01*
X208897Y006287D01*
X209252Y006641D01*
X214763Y006641D01*
X212952Y006011D02*
X212559Y006405D01*
X209370Y006405D01*
X208976Y006011D01*
X204882Y006011D01*
X204685Y006208D01*
X201299Y006208D01*
X201063Y005972D01*
X197834Y005972D01*
X201417Y005854D02*
X201417Y005263D01*
X201653Y005027D01*
X202834Y005027D01*
X203425Y005618D01*
X203740Y005618D01*
X203937Y005421D01*
X209448Y005421D01*
X209567Y005539D01*
X209252Y005618D02*
X204015Y005618D01*
X203819Y005815D01*
X203031Y005815D01*
X202834Y005618D01*
X204567Y005893D02*
X204645Y005815D01*
X209134Y005815D01*
X209527Y006208D01*
X212244Y006208D01*
X212559Y005893D01*
X212952Y006011D02*
X215039Y006011D01*
X211574Y005893D02*
X211456Y006011D01*
X209645Y006011D01*
X209252Y005618D01*
X210905Y005224D02*
X211063Y005381D01*
X210905Y005224D02*
X207637Y005224D01*
X207441Y005027D01*
X203897Y005027D01*
X203582Y005342D01*
X199763Y004830D02*
X199567Y005027D01*
X199763Y004830D02*
X207716Y004830D01*
X207834Y004948D01*
X211574Y004476D02*
X211614Y004437D01*
X189685Y008649D02*
X187165Y006130D01*
X093071Y006130D01*
X092756Y006444D01*
X090393Y006444D01*
X088543Y008295D01*
X088385Y008295D01*
X088228Y007980D02*
X088425Y007783D01*
X088228Y007980D02*
X043740Y007980D01*
X043071Y007311D01*
X036574Y007232D02*
X035630Y007232D01*
X035472Y007074D01*
X031929Y007074D01*
X031693Y007311D01*
X030748Y007311D01*
X032126Y007350D02*
X035157Y007350D01*
X035393Y007586D01*
X035905Y007586D01*
X033937Y007626D02*
X025984Y007626D01*
X025315Y006956D01*
X022834Y006956D01*
X021889Y007074D02*
X023543Y005421D01*
X014803Y007311D02*
X013464Y005972D01*
X027992Y006208D02*
X029134Y006208D01*
X029291Y006366D01*
X035945Y006366D01*
X036023Y006444D01*
X038228Y006444D01*
X038740Y006444D02*
X039055Y006130D01*
X087086Y006130D01*
X087323Y006366D01*
X088110Y006641D02*
X088425Y006326D01*
X088110Y006641D02*
X085177Y006641D01*
X092441Y006799D02*
X110748Y006799D01*
X123543Y007311D02*
X092441Y007311D01*
X088425Y007311D02*
X059330Y007311D01*
X068897Y006878D02*
X069567Y006878D01*
X069685Y006996D01*
X088307Y006996D01*
X088425Y006878D01*
X092441Y007783D02*
X129409Y007783D01*
X130197Y006996D01*
X146141Y006996D01*
X146181Y006956D01*
X136771Y009830D02*
X134173Y007232D01*
X131378Y007232D01*
X128779Y009830D01*
X026535Y009830D01*
X024488Y007783D01*
X023267Y007783D01*
X021220Y009830D01*
X005315Y009830D01*
X004842Y009358D01*
X004842Y007193D01*
X008130Y007193D01*
X008700Y006622D01*
X013504Y006956D02*
X014252Y007704D01*
X019055Y007704D01*
X020708Y007822D02*
X020708Y007941D01*
X021889Y007586D02*
X021889Y007074D01*
X017441Y006956D02*
X015511Y006956D01*
X016102Y007311D02*
X014803Y007311D01*
X022952Y007350D02*
X024803Y007350D01*
X026614Y009161D01*
X027716Y009161D01*
X031181Y009476D02*
X031574Y009476D01*
X031693Y009594D01*
X035000Y009594D01*
X036653Y007941D01*
X035748Y007941D02*
X035708Y007901D01*
X032323Y007901D01*
X032303Y007921D01*
X030748Y008334D02*
X034291Y008334D01*
X005945Y008413D02*
X005866Y008413D01*
X031063Y006878D02*
X035708Y006878D01*
X035787Y006956D01*
X036023Y006759D02*
X035826Y006563D01*
X029015Y006563D01*
X036023Y006759D02*
X036574Y006759D01*
X038740Y006484D02*
X038740Y006444D01*
X136771Y009830D02*
X202756Y009830D01*
X203031Y009555D01*
X197047Y007862D02*
X196063Y008846D01*
X189606Y008846D01*
X187598Y006838D01*
X171574Y006838D01*
X195905Y008649D02*
X196889Y007665D01*
X212677Y007665D01*
X212834Y007822D01*
X212834Y007862D01*
X212756Y008177D02*
X212441Y007862D01*
X197047Y007862D01*
X212756Y008177D02*
X213976Y008177D01*
X214330Y007822D01*
X220472Y007783D02*
X264685Y007783D01*
X264724Y007744D01*
X274448Y008059D02*
X303819Y008059D01*
X304645Y007232D01*
X317756Y007232D01*
X318622Y008098D01*
X322283Y008098D01*
X322283Y006248D02*
X323189Y006248D01*
X323346Y006090D01*
X323346Y004437D01*
X248937Y007311D02*
X220945Y007311D01*
X221653Y006799D02*
X238897Y006799D01*
X195905Y008649D02*
X189685Y008649D01*
X195984Y010500D02*
X196260Y010500D01*
X025590Y010381D02*
X025472Y010381D01*
X013228Y010381D02*
X013110Y010381D01*
X009567Y010421D02*
X009409Y010421D01*
X005236Y010460D02*
X005157Y010460D01*
D14*
X005236Y010460D03*
X009409Y010421D03*
X013228Y010381D03*
X018110Y010381D03*
X025590Y010381D03*
X027795Y010342D03*
X034448Y010342D03*
X035118Y010342D03*
X048543Y010381D03*
X060551Y010303D03*
X074330Y010421D03*
X086141Y010303D03*
X090433Y010381D03*
X099803Y010421D03*
X111889Y010303D03*
X137323Y010303D03*
X151141Y010381D03*
X162952Y010303D03*
X171693Y010381D03*
X188464Y010303D03*
X202047Y010421D03*
X213937Y010303D03*
X217165Y010342D03*
X227756Y010421D03*
X240039Y010303D03*
X253819Y010421D03*
X265787Y010303D03*
X279330Y010381D03*
X291732Y010303D03*
X317480Y010303D03*
X320748Y010421D03*
X331614Y010381D03*
X319685Y009712D03*
X321378Y009476D03*
X343779Y010303D03*
X357637Y010421D03*
X370000Y010303D03*
X378189Y010381D03*
X380315Y008256D03*
X368819Y007704D03*
X352795Y007193D03*
X326850Y006720D03*
X322283Y006681D03*
X320315Y006444D03*
X318543Y006366D03*
X322283Y006248D03*
X323031Y005933D03*
X323031Y005421D03*
X323149Y004397D03*
X319448Y004240D03*
X303504Y004240D03*
X290472Y004240D03*
X274409Y004240D03*
X264724Y004240D03*
X248976Y004161D03*
X238897Y004200D03*
X222716Y004240D03*
X218307Y004319D03*
X215236Y004279D03*
X205630Y004319D03*
X197126Y004200D03*
X187362Y004122D03*
X171535Y004279D03*
X162165Y004279D03*
X146181Y004161D03*
X123543Y004161D03*
X110748Y004122D03*
X094291Y004200D03*
X091023Y004319D03*
X088307Y004358D03*
X085157Y004161D03*
X068897Y004161D03*
X059527Y004161D03*
X043031Y004161D03*
X036850Y004397D03*
X033779Y004358D03*
X026141Y004319D03*
X022441Y004279D03*
X019724Y004673D03*
X008504Y004319D03*
X038425Y005421D03*
X038189Y005933D03*
X027992Y006208D03*
X038228Y006444D03*
X038740Y006484D03*
X038425Y006838D03*
X036574Y006759D03*
X035787Y006956D03*
X031063Y006878D03*
X029015Y006563D03*
X022834Y006956D03*
X015511Y006956D03*
X013504Y006956D03*
X008700Y006622D03*
X004842Y007193D03*
X016102Y007311D03*
X022480Y007271D03*
X021889Y007586D03*
X020708Y007822D03*
X019055Y007704D03*
X030748Y007311D03*
X032126Y007350D03*
X036574Y007232D03*
X043071Y007311D03*
X035905Y007586D03*
X033937Y007626D03*
X032303Y007921D03*
X035748Y007941D03*
X036653Y007941D03*
X034291Y008334D03*
X030748Y008334D03*
X021929Y008374D03*
X016102Y008492D03*
X015118Y008531D03*
X012244Y008492D03*
X027716Y009161D03*
X031181Y009476D03*
X088385Y008295D03*
X088425Y007783D03*
X092441Y007783D03*
X092441Y007311D03*
X088425Y007311D03*
X088425Y006878D03*
X092441Y006799D03*
X085177Y006641D03*
X087323Y006366D03*
X088425Y006326D03*
X092795Y005933D03*
X092834Y005421D03*
X110748Y006799D03*
X123543Y007311D03*
X146181Y006956D03*
X171574Y006838D03*
X188897Y005972D03*
X197834Y005972D03*
X201417Y005854D03*
X204567Y005893D03*
X202834Y005618D03*
X203582Y005342D03*
X199567Y005027D03*
X207834Y004948D03*
X211063Y005381D03*
X209567Y005539D03*
X211574Y005893D03*
X212559Y005893D03*
X215039Y006011D03*
X221063Y005933D03*
X220826Y005421D03*
X214763Y006641D03*
X221653Y006799D03*
X220945Y007311D03*
X220472Y007783D03*
X215078Y007862D03*
X214330Y007822D03*
X212834Y007862D03*
X216811Y008334D03*
X248937Y007311D03*
X238897Y006799D03*
X264724Y007744D03*
X274448Y008059D03*
X290472Y007547D03*
X303504Y007074D03*
X322283Y007114D03*
X325551Y007193D03*
X322283Y007586D03*
X325551Y007744D03*
X322283Y008098D03*
X325511Y008256D03*
X368819Y004279D03*
X378149Y004279D03*
X380315Y004240D03*
X352795Y004240D03*
X342441Y004240D03*
X203031Y009555D03*
X164409Y009043D03*
X068897Y006878D03*
X059330Y007311D03*
X013464Y005972D03*
M02*
