G75*
%MOIN*%
%OFA0B0*%
%FSLAX24Y24*%
%IPPOS*%
%LPD*%
%AMOC8*
5,1,8,0,0,1.08239X$1,22.5*
%
%ADD10C,0.0100*%
%ADD11R,0.0709X0.0630*%
%ADD12R,0.0591X0.0591*%
%ADD13R,0.0710X0.0630*%
%ADD14R,0.0866X0.0236*%
%ADD15C,0.0150*%
%ADD16R,0.0500X0.1417*%
%ADD17R,0.0630X0.0709*%
%ADD18R,0.0630X0.0710*%
%ADD19R,0.2362X0.1063*%
%ADD20R,0.0800X0.0260*%
%ADD21R,0.0236X0.0709*%
%ADD22R,0.0500X0.1252*%
%ADD23R,0.0787X0.0299*%
%ADD24C,0.0079*%
%ADD25C,0.0197*%
%ADD26C,0.0500*%
%ADD27C,0.0276*%
D10*
X025876Y004880D02*
X026143Y004880D01*
X026010Y004880D02*
X026010Y005281D01*
X025876Y005147D01*
X044695Y005065D02*
X044762Y004998D01*
X044896Y004998D01*
X044962Y005065D01*
X044962Y005199D01*
X044829Y005199D01*
X044962Y005332D02*
X044896Y005399D01*
X044762Y005399D01*
X044695Y005332D01*
X044695Y005065D01*
X045156Y004998D02*
X045156Y005399D01*
X045356Y005399D01*
X045423Y005332D01*
X045423Y005199D01*
X045356Y005132D01*
X045156Y005132D01*
X045616Y004998D02*
X045883Y004998D01*
X045616Y004998D02*
X045616Y005399D01*
X046537Y005265D02*
X046670Y004998D01*
X046804Y005265D01*
X046997Y005332D02*
X047064Y005399D01*
X047197Y005399D01*
X047264Y005332D01*
X047264Y005265D01*
X047197Y005199D01*
X047264Y005132D01*
X047264Y005065D01*
X047197Y004998D01*
X047064Y004998D01*
X046997Y005065D01*
X047131Y005199D02*
X047197Y005199D01*
X047304Y005615D02*
X047438Y005748D01*
X047371Y005748D01*
X047371Y005815D01*
X047438Y005815D01*
X047438Y005748D01*
X047111Y005815D02*
X047044Y005748D01*
X046911Y005748D01*
X046844Y005815D01*
X046911Y005949D02*
X047044Y005949D01*
X047111Y005882D01*
X047111Y005815D01*
X046911Y005949D02*
X046844Y006015D01*
X046844Y006082D01*
X046911Y006149D01*
X047044Y006149D01*
X047111Y006082D01*
X046650Y006149D02*
X046383Y006149D01*
X046383Y005748D01*
X046383Y005949D02*
X046517Y005949D01*
X045750Y005815D02*
X045683Y005815D01*
X045683Y005748D01*
X045750Y005748D01*
X045750Y005815D01*
X045750Y005748D02*
X045616Y005615D01*
X045423Y005815D02*
X045356Y005748D01*
X045222Y005748D01*
X045156Y005815D01*
X045222Y005949D02*
X045356Y005949D01*
X045423Y005882D01*
X045423Y005815D01*
X045222Y005949D02*
X045156Y006015D01*
X045156Y006082D01*
X045222Y006149D01*
X045356Y006149D01*
X045423Y006082D01*
X044962Y006082D02*
X044962Y005949D01*
X044896Y005882D01*
X044695Y005882D01*
X044695Y005748D02*
X044695Y006149D01*
X044896Y006149D01*
X044962Y006082D01*
X044829Y005882D02*
X044962Y005748D01*
X048072Y005748D02*
X048072Y006149D01*
X048205Y006015D01*
X048338Y006149D01*
X048338Y005748D01*
X048532Y005815D02*
X048599Y005882D01*
X048799Y005882D01*
X048799Y005949D02*
X048799Y005748D01*
X048599Y005748D01*
X048532Y005815D01*
X048732Y006015D02*
X048799Y005949D01*
X048732Y006015D02*
X048599Y006015D01*
X048992Y006015D02*
X048992Y005815D01*
X049059Y005748D01*
X049259Y005748D01*
X049259Y005682D02*
X049193Y005615D01*
X049126Y005615D01*
X049259Y005682D02*
X049259Y006015D01*
X049913Y006082D02*
X049980Y006149D01*
X050113Y006149D01*
X050180Y006082D01*
X050180Y006015D01*
X049913Y005748D01*
X050180Y005748D01*
X050374Y005815D02*
X050640Y006082D01*
X050640Y005815D01*
X050574Y005748D01*
X050440Y005748D01*
X050374Y005815D01*
X050374Y006082D01*
X050440Y006149D01*
X050574Y006149D01*
X050640Y006082D01*
X050834Y006015D02*
X050967Y006149D01*
X050967Y005748D01*
X050834Y005748D02*
X051101Y005748D01*
X051294Y005815D02*
X051361Y005748D01*
X051494Y005748D01*
X051561Y005815D01*
X051561Y005949D01*
X051494Y006015D01*
X051428Y006015D01*
X051294Y005949D01*
X051294Y006149D01*
X051561Y006149D01*
X047611Y006498D02*
X047611Y006765D01*
X047611Y006632D02*
X047745Y006765D01*
X047811Y006765D01*
X047418Y006699D02*
X047418Y006632D01*
X047151Y006632D01*
X047151Y006565D02*
X047151Y006699D01*
X047217Y006765D01*
X047351Y006765D01*
X047418Y006699D01*
X047217Y006498D02*
X047151Y006565D01*
X047217Y006498D02*
X047351Y006498D01*
X046977Y006498D02*
X046844Y006498D01*
X046911Y006498D02*
X046911Y006765D01*
X046844Y006765D01*
X046911Y006899D02*
X046911Y006965D01*
X046604Y006899D02*
X046604Y006498D01*
X046670Y006498D02*
X046537Y006498D01*
X046343Y006498D02*
X046143Y006498D01*
X046077Y006565D01*
X046143Y006632D01*
X046343Y006632D01*
X046343Y006699D02*
X046343Y006498D01*
X045883Y006498D02*
X045683Y006498D01*
X045616Y006565D01*
X045616Y006699D01*
X045683Y006765D01*
X045883Y006765D01*
X045883Y006899D02*
X045883Y006498D01*
X045423Y006632D02*
X045156Y006632D01*
X045156Y006565D02*
X045156Y006699D01*
X045222Y006765D01*
X045356Y006765D01*
X045423Y006699D01*
X045423Y006632D01*
X045356Y006498D02*
X045222Y006498D01*
X045156Y006565D01*
X044962Y006699D02*
X044896Y006632D01*
X044695Y006632D01*
X044695Y006498D02*
X044695Y006899D01*
X044896Y006899D01*
X044962Y006832D01*
X044962Y006699D01*
X046143Y006765D02*
X046277Y006765D01*
X046343Y006699D01*
X046537Y006899D02*
X046604Y006899D01*
X052451Y007900D02*
X052518Y007833D01*
X052651Y007833D01*
X052718Y007900D01*
X052718Y007967D01*
X052651Y008033D01*
X052585Y008033D01*
X052651Y008033D02*
X052718Y008100D01*
X052718Y008167D01*
X052651Y008233D01*
X052518Y008233D01*
X052451Y008167D01*
X065644Y009172D02*
X065644Y009572D01*
X065443Y009372D01*
X065710Y009372D01*
X091034Y009317D02*
X091101Y009250D01*
X091234Y009250D01*
X091301Y009317D01*
X091301Y009384D01*
X091234Y009451D01*
X091034Y009451D01*
X091034Y009317D01*
X091034Y009451D02*
X091167Y009584D01*
X091301Y009651D01*
X116624Y009466D02*
X116624Y009399D01*
X116691Y009332D01*
X116825Y009332D01*
X116891Y009266D01*
X116891Y009199D01*
X116825Y009132D01*
X116691Y009132D01*
X116624Y009199D01*
X116624Y009266D01*
X116691Y009332D01*
X116825Y009332D02*
X116891Y009399D01*
X116891Y009466D01*
X116825Y009533D01*
X116691Y009533D01*
X116624Y009466D01*
X142215Y009439D02*
X142282Y009372D01*
X142482Y009372D01*
X142482Y009505D02*
X142482Y009238D01*
X142415Y009172D01*
X142282Y009172D01*
X142215Y009238D01*
X142215Y009439D02*
X142215Y009505D01*
X142282Y009572D01*
X142415Y009572D01*
X142482Y009505D01*
X167609Y009557D02*
X167742Y009690D01*
X167742Y009290D01*
X167609Y009290D02*
X167876Y009290D01*
X168069Y009290D02*
X168336Y009290D01*
X168203Y009290D02*
X168203Y009690D01*
X168069Y009557D01*
X193199Y009557D02*
X193333Y009690D01*
X193333Y009290D01*
X193466Y009290D02*
X193199Y009290D01*
X193660Y009356D02*
X193726Y009290D01*
X193860Y009290D01*
X193927Y009356D01*
X193927Y009423D01*
X193860Y009490D01*
X193793Y009490D01*
X193860Y009490D02*
X193927Y009557D01*
X193927Y009623D01*
X193860Y009690D01*
X193726Y009690D01*
X193660Y009623D01*
X207569Y010235D02*
X207836Y010235D01*
X207703Y010235D02*
X207703Y010635D01*
X207569Y010502D01*
X218790Y009557D02*
X218923Y009690D01*
X218923Y009290D01*
X218790Y009290D02*
X219057Y009290D01*
X219250Y009490D02*
X219517Y009490D01*
X219450Y009690D02*
X219250Y009490D01*
X219450Y009290D02*
X219450Y009690D01*
X244774Y009517D02*
X244908Y009651D01*
X244908Y009250D01*
X245041Y009250D02*
X244774Y009250D01*
X245234Y009317D02*
X245301Y009250D01*
X245435Y009250D01*
X245501Y009317D01*
X245501Y009384D01*
X245435Y009451D01*
X245234Y009451D01*
X245234Y009317D01*
X245234Y009451D02*
X245368Y009584D01*
X245501Y009651D01*
X270365Y009478D02*
X270498Y009611D01*
X270498Y009211D01*
X270365Y009211D02*
X270632Y009211D01*
X270825Y009278D02*
X270892Y009211D01*
X271025Y009211D01*
X271092Y009278D01*
X271092Y009344D01*
X271025Y009411D01*
X270892Y009411D01*
X270825Y009478D01*
X270825Y009545D01*
X270892Y009611D01*
X271025Y009611D01*
X271092Y009545D01*
X271092Y009478D01*
X271025Y009411D01*
X270892Y009411D02*
X270825Y009344D01*
X270825Y009278D01*
X296349Y009250D02*
X296616Y009517D01*
X296616Y009584D01*
X296549Y009651D01*
X296416Y009651D01*
X296349Y009584D01*
X296809Y009584D02*
X296876Y009651D01*
X297009Y009651D01*
X297076Y009584D01*
X296809Y009317D01*
X296876Y009250D01*
X297009Y009250D01*
X297076Y009317D01*
X297076Y009584D01*
X296809Y009584D02*
X296809Y009317D01*
X296616Y009250D02*
X296349Y009250D01*
X284084Y008088D02*
X284017Y008155D01*
X283884Y008155D01*
X283817Y008088D01*
X283817Y008021D01*
X283884Y007955D01*
X284084Y007955D01*
X284084Y008088D02*
X284084Y007821D01*
X284017Y007754D01*
X283884Y007754D01*
X283817Y007821D01*
X283624Y007754D02*
X283357Y007754D01*
X283490Y007754D02*
X283490Y008155D01*
X283357Y008021D01*
X258297Y008167D02*
X258030Y007900D01*
X258030Y007833D01*
X257836Y007833D02*
X257569Y007833D01*
X257703Y007833D02*
X257703Y008233D01*
X257569Y008100D01*
X258030Y008233D02*
X258297Y008233D01*
X258297Y008167D01*
X232509Y008233D02*
X232242Y008233D01*
X232242Y008033D01*
X232376Y008100D01*
X232443Y008100D01*
X232509Y008033D01*
X232509Y007900D01*
X232443Y007833D01*
X232309Y007833D01*
X232242Y007900D01*
X232049Y007833D02*
X231782Y007833D01*
X231915Y007833D02*
X231915Y008233D01*
X231782Y008100D01*
X180934Y008100D02*
X180668Y007833D01*
X180934Y007833D01*
X180474Y007833D02*
X180207Y007833D01*
X180341Y007833D02*
X180341Y008233D01*
X180207Y008100D01*
X180668Y008167D02*
X180734Y008233D01*
X180868Y008233D01*
X180934Y008167D01*
X180934Y008100D01*
X155738Y008088D02*
X155471Y007821D01*
X155537Y007754D01*
X155671Y007754D01*
X155738Y007821D01*
X155738Y008088D01*
X155671Y008155D01*
X155537Y008155D01*
X155471Y008088D01*
X155471Y007821D01*
X155277Y007754D02*
X155010Y007754D01*
X155144Y007754D02*
X155144Y008155D01*
X155010Y008021D01*
X104135Y008127D02*
X103869Y007860D01*
X103869Y007794D01*
X103869Y008194D02*
X104135Y008194D01*
X104135Y008127D01*
X078545Y008194D02*
X078278Y008194D01*
X078278Y007994D01*
X078411Y008061D01*
X078478Y008061D01*
X078545Y007994D01*
X078545Y007860D01*
X078478Y007794D01*
X078345Y007794D01*
X078278Y007860D01*
X039765Y009290D02*
X039498Y009290D01*
X039765Y009557D01*
X039765Y009623D01*
X039699Y009690D01*
X039565Y009690D01*
X039498Y009623D01*
X015750Y009211D02*
X015483Y009211D01*
X015616Y009211D02*
X015616Y009611D01*
X015483Y009478D01*
X008333Y009375D02*
X008199Y009242D01*
X008333Y009375D02*
X008333Y008975D01*
X008466Y008975D02*
X008199Y008975D01*
X025680Y006879D02*
X025813Y007013D01*
X025813Y006613D01*
X025680Y006613D02*
X025946Y006613D01*
X008427Y006061D02*
X008160Y006061D01*
X008293Y006061D02*
X008293Y006462D01*
X008160Y006328D01*
X205089Y004202D02*
X205222Y004336D01*
X205222Y003935D01*
X205089Y003935D02*
X205356Y003935D01*
X213554Y003935D02*
X213821Y003935D01*
X213687Y003935D02*
X213687Y004336D01*
X213554Y004202D01*
X335286Y007872D02*
X335553Y008139D01*
X335553Y008206D01*
X335486Y008273D01*
X335353Y008273D01*
X335286Y008206D01*
X335746Y008206D02*
X335813Y008273D01*
X335946Y008273D01*
X336013Y008206D01*
X336013Y008139D01*
X335746Y007872D01*
X336013Y007872D01*
X335553Y007872D02*
X335286Y007872D01*
X361664Y007754D02*
X361931Y008021D01*
X361931Y008088D01*
X361864Y008155D01*
X361731Y008155D01*
X361664Y008088D01*
X362124Y007955D02*
X362391Y007955D01*
X362324Y008155D02*
X362124Y007955D01*
X361931Y007754D02*
X361664Y007754D01*
X362324Y007754D02*
X362324Y008155D01*
X374695Y009250D02*
X374962Y009517D01*
X374962Y009584D01*
X374896Y009651D01*
X374762Y009651D01*
X374695Y009584D01*
X375156Y009651D02*
X375156Y009451D01*
X375289Y009517D01*
X375356Y009517D01*
X375423Y009451D01*
X375423Y009317D01*
X375356Y009250D01*
X375222Y009250D01*
X375156Y009317D01*
X374962Y009250D02*
X374695Y009250D01*
X375156Y009651D02*
X375423Y009651D01*
X349202Y009584D02*
X349202Y009517D01*
X349135Y009451D01*
X349202Y009384D01*
X349202Y009317D01*
X349135Y009250D01*
X349002Y009250D01*
X348935Y009317D01*
X349069Y009451D02*
X349135Y009451D01*
X349202Y009584D02*
X349135Y009651D01*
X349002Y009651D01*
X348935Y009584D01*
X348742Y009584D02*
X348675Y009651D01*
X348542Y009651D01*
X348475Y009584D01*
X348742Y009584D02*
X348742Y009517D01*
X348475Y009250D01*
X348742Y009250D01*
X323060Y009329D02*
X322794Y009329D01*
X322927Y009329D02*
X322927Y009729D01*
X322794Y009596D01*
X322600Y009596D02*
X322600Y009663D01*
X322533Y009729D01*
X322400Y009729D01*
X322333Y009663D01*
X322600Y009596D02*
X322333Y009329D01*
X322600Y009329D01*
D11*
X378169Y007567D03*
X378169Y006464D03*
X194980Y006956D03*
X191968Y006819D03*
X190689Y006858D03*
X194980Y005854D03*
X191968Y005716D03*
X190689Y005756D03*
D12*
X016948Y007921D03*
X016948Y009102D03*
X009291Y005500D03*
X009291Y004319D03*
D13*
X010649Y004330D03*
X026889Y004349D03*
X027992Y004349D03*
X029015Y004349D03*
X030019Y004369D03*
X031063Y004369D03*
X032126Y004389D03*
X033130Y004389D03*
X043051Y004841D03*
X059488Y004881D03*
X068897Y004841D03*
X085177Y004881D03*
X094291Y004900D03*
X110728Y004743D03*
X123563Y004881D03*
X146181Y004959D03*
X162145Y004920D03*
X171555Y004920D03*
X187342Y004822D03*
X197126Y004822D03*
X222716Y004920D03*
X238917Y004920D03*
X248976Y004940D03*
X264704Y004999D03*
X274429Y004920D03*
X290472Y004959D03*
X303484Y004999D03*
X319429Y005314D03*
X303484Y006119D03*
X290472Y006079D03*
X274429Y006040D03*
X264704Y006119D03*
X248976Y006059D03*
X238917Y006040D03*
X222716Y006040D03*
X197126Y005941D03*
X187342Y005941D03*
X171555Y006040D03*
X162145Y006040D03*
X146181Y006079D03*
X123563Y006000D03*
X110728Y005863D03*
X094291Y006020D03*
X085177Y006000D03*
X068897Y005961D03*
X059488Y006000D03*
X043051Y005961D03*
X033130Y005508D03*
X032126Y005508D03*
X031063Y005489D03*
X030019Y005489D03*
X029015Y005469D03*
X027992Y005469D03*
X026889Y005469D03*
X010649Y005449D03*
X011181Y007814D03*
X009409Y007794D03*
X018130Y007912D03*
X020000Y007912D03*
X011181Y008933D03*
X009409Y008914D03*
X018130Y009032D03*
X020000Y009032D03*
X087342Y009091D03*
X087342Y007971D03*
X319429Y006433D03*
X342460Y006020D03*
X352795Y006059D03*
X368838Y006059D03*
X380354Y006079D03*
X380354Y004959D03*
X368838Y004940D03*
X352795Y004940D03*
X342460Y004900D03*
D14*
X014724Y004972D03*
X012677Y004972D03*
X012677Y004472D03*
X014724Y004472D03*
X014724Y005472D03*
X012677Y005472D03*
X012677Y005972D03*
X014724Y005972D03*
X014724Y006472D03*
X012677Y006472D03*
X012677Y006972D03*
X014724Y006972D03*
X014724Y007472D03*
X012677Y007472D03*
D15*
X024943Y004000D02*
X025293Y004000D01*
X024943Y004000D02*
X024943Y005266D01*
X025293Y005266D01*
X025293Y004000D01*
X025293Y004149D02*
X024943Y004149D01*
X024943Y004298D02*
X025293Y004298D01*
X025293Y004447D02*
X024943Y004447D01*
X024943Y004596D02*
X025293Y004596D01*
X025293Y004745D02*
X024943Y004745D01*
X024943Y004894D02*
X025293Y004894D01*
X025293Y005043D02*
X024943Y005043D01*
X024943Y005192D02*
X025293Y005192D01*
X203931Y003906D02*
X204281Y003906D01*
X203931Y003906D02*
X203931Y005172D01*
X204281Y005172D01*
X204281Y003906D01*
X204281Y004055D02*
X203931Y004055D01*
X203931Y004204D02*
X204281Y004204D01*
X204281Y004353D02*
X203931Y004353D01*
X203931Y004502D02*
X204281Y004502D01*
X204281Y004651D02*
X203931Y004651D01*
X203931Y004800D02*
X204281Y004800D01*
X204281Y004949D02*
X203931Y004949D01*
X203931Y005098D02*
X204281Y005098D01*
X212396Y003906D02*
X212746Y003906D01*
X212396Y003906D02*
X212396Y005172D01*
X212746Y005172D01*
X212746Y003906D01*
X212746Y004055D02*
X212396Y004055D01*
X212396Y004204D02*
X212746Y004204D01*
X212746Y004353D02*
X212396Y004353D01*
X212396Y004502D02*
X212746Y004502D01*
X212746Y004651D02*
X212396Y004651D01*
X212396Y004800D02*
X212746Y004800D01*
X212746Y004949D02*
X212396Y004949D01*
X212396Y005098D02*
X212746Y005098D01*
D16*
X211571Y004539D03*
X210571Y004539D03*
X209571Y004539D03*
X208571Y004539D03*
X203106Y004539D03*
X202106Y004539D03*
X201106Y004539D03*
X200106Y004539D03*
X200106Y006854D03*
X201106Y006854D03*
X202106Y006854D03*
X203106Y006854D03*
X204106Y006854D03*
X208571Y006854D03*
X209571Y006854D03*
X210571Y006854D03*
X211571Y006854D03*
X212571Y006854D03*
X024118Y006051D03*
X022118Y006051D03*
X020118Y006051D03*
X021118Y004633D03*
X023118Y004633D03*
D17*
X035059Y004476D03*
X036161Y004476D03*
X089232Y004338D03*
X090334Y004338D03*
X014330Y008689D03*
X013228Y008689D03*
X216496Y004417D03*
X217598Y004417D03*
X321437Y004378D03*
X322539Y004378D03*
D18*
X214142Y008826D03*
X213023Y008826D03*
X201839Y008885D03*
X200719Y008885D03*
X318534Y008944D03*
X319654Y008944D03*
X017430Y004791D03*
X016310Y004791D03*
X016290Y005854D03*
X017410Y005854D03*
X010560Y006622D03*
X009440Y006622D03*
D19*
X045807Y008925D03*
X059389Y008925D03*
X071594Y008925D03*
X085177Y008925D03*
X097185Y008925D03*
X110767Y008925D03*
X109980Y010303D03*
X097972Y010303D03*
X084389Y010303D03*
X072382Y010303D03*
X058799Y010303D03*
X046397Y010303D03*
X032815Y010303D03*
X020807Y010303D03*
X007224Y010303D03*
X123563Y010303D03*
X135571Y010303D03*
X149153Y010303D03*
X161161Y010303D03*
X174744Y010303D03*
X186752Y010303D03*
X200334Y010303D03*
X212342Y010303D03*
X225925Y010303D03*
X238326Y010303D03*
X251909Y010303D03*
X263917Y010303D03*
X277500Y010303D03*
X289901Y010303D03*
X303484Y010303D03*
X315885Y010303D03*
X329468Y010303D03*
X342067Y010303D03*
X355649Y010303D03*
X368248Y010303D03*
X381830Y010303D03*
X368838Y008925D03*
X355256Y008925D03*
X342460Y008925D03*
X328878Y008925D03*
X290492Y008925D03*
X276909Y008925D03*
X264704Y008925D03*
X251122Y008925D03*
X238917Y008925D03*
X225334Y008925D03*
X187342Y008925D03*
X173760Y008925D03*
X162145Y008925D03*
X148563Y008925D03*
D20*
X091603Y008805D03*
X089183Y008805D03*
X089183Y008305D03*
X091603Y008305D03*
X091603Y007805D03*
X089183Y007805D03*
X089183Y007305D03*
X091603Y007305D03*
X091603Y006805D03*
X089183Y006805D03*
X089183Y006305D03*
X091603Y006305D03*
X091603Y005805D03*
X089183Y005805D03*
X089183Y005305D03*
X091603Y005305D03*
X037430Y005443D03*
X035010Y005443D03*
X035010Y005943D03*
X037430Y005943D03*
X037430Y006443D03*
X035010Y006443D03*
X035010Y006943D03*
X037430Y006943D03*
X037430Y007443D03*
X035010Y007443D03*
X035010Y007943D03*
X037430Y007943D03*
X037430Y008443D03*
X035010Y008443D03*
X035010Y008943D03*
X037430Y008943D03*
X216073Y008824D03*
X218493Y008824D03*
X218493Y008324D03*
X216073Y008324D03*
X216073Y007824D03*
X218493Y007824D03*
X218493Y007324D03*
X216073Y007324D03*
X216073Y006824D03*
X218493Y006824D03*
X218493Y006324D03*
X216073Y006324D03*
X216073Y005824D03*
X218493Y005824D03*
X218493Y005324D03*
X216073Y005324D03*
X321427Y005443D03*
X323847Y005443D03*
X323847Y005943D03*
X321427Y005943D03*
X321427Y006443D03*
X323847Y006443D03*
X323847Y006943D03*
X321427Y006943D03*
X321427Y007443D03*
X323847Y007443D03*
X323847Y007943D03*
X321427Y007943D03*
X321427Y008443D03*
X323847Y008443D03*
X323847Y008943D03*
X321427Y008943D03*
D21*
X193779Y007018D03*
X193405Y007018D03*
X193031Y007018D03*
X193031Y005674D03*
X193779Y005674D03*
D22*
X205315Y008570D03*
X206315Y010224D03*
X204315Y010224D03*
X006846Y008964D03*
X004846Y008964D03*
X005846Y007311D03*
X004846Y006110D03*
X006846Y006110D03*
X005846Y004456D03*
D23*
X026665Y006840D03*
X029988Y006840D03*
X029988Y007340D03*
X026665Y007340D03*
X026665Y007840D03*
X029988Y007840D03*
X029988Y008340D03*
X026665Y008340D03*
X026665Y008840D03*
X029988Y008840D03*
X029988Y009340D03*
X026665Y009340D03*
X026665Y009840D03*
X029988Y009840D03*
X029988Y010340D03*
X026665Y010340D03*
D24*
X014252Y004043D02*
X013937Y004358D01*
X013937Y006287D01*
X014094Y006444D01*
X014697Y006444D01*
X014724Y006472D01*
X011929Y005224D02*
X010560Y006593D01*
X010560Y006622D01*
X009440Y006622D02*
X008700Y006622D01*
X011229Y007814D02*
X012071Y006972D01*
X012677Y006972D01*
X012693Y006956D01*
X013504Y006956D01*
X014724Y006972D02*
X015496Y006972D01*
X015511Y006956D01*
X017410Y005854D02*
X018670Y007114D01*
X021417Y007114D01*
X021889Y007586D01*
X020708Y007822D02*
X020089Y007822D01*
X020000Y007912D01*
X019488Y008531D02*
X019055Y008098D01*
X019055Y007704D01*
X018130Y007912D02*
X018121Y007921D01*
X016948Y007921D01*
X021220Y007311D02*
X021771Y007862D01*
X022441Y007862D01*
X023622Y006681D01*
X023622Y005303D01*
X024291Y004633D01*
X025118Y004633D01*
X023118Y004633D02*
X023118Y004279D01*
X022441Y004279D01*
X026141Y004319D02*
X026889Y004319D01*
X026889Y004349D01*
X027992Y004349D01*
X029015Y004349D01*
X029035Y004369D01*
X030019Y004369D01*
X031063Y004369D01*
X031082Y004389D01*
X032126Y004389D01*
X033130Y004389D01*
X033160Y004358D01*
X033779Y004358D01*
X035010Y004525D02*
X035059Y004476D01*
X035059Y004535D01*
X033622Y005972D01*
X033622Y008846D01*
X035118Y010342D01*
X034448Y010342D02*
X032854Y010342D01*
X032815Y010303D01*
X031181Y010185D02*
X031181Y009476D01*
X030669Y009555D02*
X032303Y007921D01*
X033130Y007094D01*
X033130Y005508D01*
X032126Y005508D02*
X032126Y007350D01*
X031850Y007626D01*
X031850Y008059D01*
X030569Y009340D01*
X029988Y009340D01*
X028895Y010340D02*
X027716Y009161D01*
X026665Y009340D02*
X026665Y009840D01*
X026653Y009840D01*
X026653Y010342D01*
X026665Y010340D02*
X027756Y010340D01*
X027756Y010342D01*
X027795Y010342D01*
X028895Y010340D02*
X029988Y010340D01*
X030630Y010736D02*
X031181Y010185D01*
X030669Y009673D02*
X030502Y009840D01*
X029988Y009840D01*
X030669Y009673D02*
X030669Y009555D01*
X026665Y009340D02*
X026665Y008840D01*
X026665Y008340D01*
X026665Y007840D01*
X026665Y007340D01*
X026665Y006840D01*
X029015Y006917D02*
X029015Y006563D01*
X029015Y005469D01*
X029988Y005520D02*
X029988Y006840D01*
X030592Y006840D01*
X030748Y006996D01*
X030748Y007311D01*
X029988Y007340D02*
X029978Y007330D01*
X029429Y007330D01*
X029015Y006917D01*
X031063Y006878D02*
X031063Y008452D01*
X030675Y008840D01*
X029988Y008840D01*
X033937Y008452D02*
X034409Y008925D01*
X034992Y008925D01*
X035010Y008943D01*
X036260Y008570D02*
X036632Y008943D01*
X037430Y008943D01*
X038307Y009358D02*
X038740Y008925D01*
X038740Y006484D01*
X038228Y006444D02*
X037432Y006444D01*
X037430Y006443D01*
X035010Y006443D02*
X034411Y006443D01*
X034291Y006563D01*
X034291Y008334D01*
X033937Y008452D02*
X033937Y007626D01*
X035010Y007443D02*
X035761Y007443D01*
X035905Y007586D01*
X036574Y007232D02*
X036785Y007443D01*
X037430Y007443D01*
X038175Y007443D01*
X038425Y007193D01*
X038425Y006838D01*
X037430Y006943D02*
X036758Y006943D01*
X036574Y006759D01*
X035787Y006956D02*
X035773Y006943D01*
X035010Y006943D01*
X031063Y006878D02*
X031063Y005489D01*
X030019Y005489D02*
X029988Y005520D01*
X027992Y005469D02*
X027992Y006208D01*
X029624Y007840D01*
X029988Y007840D01*
X025590Y007980D02*
X025590Y010381D01*
X021240Y010736D02*
X020807Y010303D01*
X020118Y010303D01*
X020078Y010263D01*
X020078Y009111D01*
X020000Y009032D01*
X018130Y009032D02*
X018130Y010362D01*
X018110Y010381D01*
X013228Y010381D02*
X013228Y008689D01*
X013071Y008531D01*
X013071Y008492D01*
X012716Y008137D01*
X012716Y007511D01*
X012677Y007472D01*
X014488Y007472D02*
X014488Y008531D01*
X015118Y008531D01*
X014488Y008531D02*
X014330Y008689D01*
X016102Y008492D02*
X016338Y008492D01*
X016948Y009102D01*
X012244Y008492D02*
X011929Y008807D01*
X011054Y008807D01*
X011181Y008933D01*
X009409Y008914D02*
X009409Y010421D01*
X007224Y010303D02*
X007067Y010460D01*
X005236Y010460D01*
X006846Y009925D02*
X007224Y010303D01*
X006846Y009925D02*
X006846Y008964D01*
X019488Y008531D02*
X021771Y008531D01*
X021929Y008374D01*
X026889Y005933D02*
X029297Y008340D01*
X029988Y008340D01*
X029761Y008340D01*
X029767Y008334D01*
X030748Y008334D01*
X029988Y008340D02*
X029982Y008334D01*
X035010Y008443D02*
X035777Y008443D01*
X036693Y009358D01*
X038307Y009358D01*
X045807Y008925D02*
X047795Y008925D01*
X048543Y009673D01*
X048543Y010381D01*
X046397Y010303D02*
X044527Y010303D01*
X043051Y008826D01*
X043051Y007330D01*
X043071Y007311D01*
X043051Y007291D01*
X043051Y005961D01*
X038189Y005933D02*
X038179Y005943D01*
X037430Y005943D01*
X036260Y005943D02*
X035010Y005943D01*
X036260Y005943D02*
X036260Y004574D01*
X036260Y004397D01*
X036850Y004397D01*
X036260Y004574D02*
X036161Y004476D01*
X035010Y004525D02*
X035010Y005443D01*
X035059Y005394D01*
X037430Y005443D02*
X038403Y005443D01*
X038425Y005421D01*
X036260Y005943D02*
X036260Y008570D01*
X036653Y007941D02*
X037428Y007941D01*
X037430Y007943D01*
X035748Y007941D02*
X035746Y007943D01*
X035010Y007943D01*
X025590Y007980D02*
X024134Y006523D01*
X024134Y006067D01*
X024118Y006051D01*
X022118Y006051D02*
X021220Y006051D01*
X020708Y005539D01*
X020708Y005106D01*
X020275Y004673D01*
X019724Y004673D01*
X020527Y004043D02*
X021118Y004633D01*
X019527Y006917D02*
X017430Y004819D01*
X017430Y004791D01*
X016310Y004791D02*
X015630Y004791D01*
X015448Y004972D01*
X014724Y004972D01*
X012677Y004972D02*
X012661Y004988D01*
X012362Y004988D01*
X012126Y005224D01*
X011929Y005224D01*
X017874Y004279D02*
X018622Y005027D01*
X020354Y005027D01*
X020551Y005224D01*
X020551Y005696D01*
X021811Y006956D01*
X022834Y006956D01*
X021850Y007271D02*
X021496Y006917D01*
X019527Y006917D01*
X021220Y007311D02*
X016102Y007311D01*
X014724Y007472D02*
X014488Y007472D01*
X011229Y007814D02*
X011181Y007814D01*
X009409Y007794D02*
X009381Y007822D01*
X007401Y007822D01*
X006846Y007267D01*
X006846Y006110D01*
X004846Y006110D02*
X004846Y007189D01*
X004842Y007193D01*
X005846Y007311D02*
X005866Y007330D01*
X021850Y007271D02*
X022480Y007271D01*
X026889Y005933D02*
X026889Y005469D01*
X016290Y005854D02*
X015826Y005854D01*
X015445Y005472D01*
X014724Y005472D01*
X010649Y005449D02*
X009341Y005449D01*
X009291Y005500D01*
X012677Y005972D02*
X013464Y005972D01*
X043051Y004841D02*
X043051Y004181D01*
X043031Y004161D01*
X059488Y004200D02*
X059527Y004161D01*
X059488Y004200D02*
X059488Y004881D01*
X068897Y004841D02*
X068897Y004161D01*
X085157Y004161D02*
X085177Y004181D01*
X085177Y004881D01*
X090334Y004338D02*
X090787Y004791D01*
X090787Y008570D01*
X091021Y008805D01*
X091603Y008805D01*
X089183Y008805D02*
X088427Y008805D01*
X088141Y009091D01*
X087342Y009091D01*
X085177Y008925D02*
X085177Y006641D01*
X085177Y006000D01*
X092234Y005805D02*
X092362Y005933D01*
X092795Y005933D01*
X092234Y005805D02*
X091603Y005805D01*
X089183Y005805D02*
X088454Y005805D01*
X088307Y005657D01*
X088307Y004358D01*
X089183Y004387D02*
X089232Y004338D01*
X089183Y004387D02*
X089183Y005305D01*
X090238Y005305D01*
X090433Y005500D01*
X090433Y010381D01*
X094291Y009358D02*
X095236Y010303D01*
X097972Y010303D01*
X099803Y010421D02*
X099803Y009673D01*
X099055Y008925D01*
X097185Y008925D01*
X094291Y009358D02*
X094291Y006020D01*
X094282Y006011D01*
X093622Y006011D01*
X093328Y006305D01*
X091603Y006305D01*
X089183Y006305D02*
X088447Y006305D01*
X088425Y006326D01*
X087323Y006366D02*
X087323Y007952D01*
X087342Y007971D01*
X088425Y007783D02*
X089162Y007783D01*
X089183Y007805D01*
X091603Y007805D02*
X092419Y007805D01*
X092441Y007783D01*
X092441Y007311D02*
X092435Y007305D01*
X091603Y007305D01*
X089183Y007305D02*
X089177Y007311D01*
X088425Y007311D01*
X088425Y006878D02*
X088498Y006805D01*
X089183Y006805D01*
X091603Y006805D02*
X092435Y006805D01*
X092441Y006799D01*
X110728Y006779D02*
X110748Y006799D01*
X110748Y008905D01*
X110767Y008925D01*
X089183Y008305D02*
X088395Y008305D01*
X088385Y008295D01*
X074330Y009633D02*
X073622Y008925D01*
X071594Y008925D01*
X070315Y010303D02*
X068897Y008885D01*
X068897Y006878D01*
X068897Y005961D01*
X059488Y006000D02*
X059389Y006099D01*
X059389Y007252D01*
X059330Y007311D01*
X059389Y007370D01*
X059389Y008925D01*
X074330Y009633D02*
X074330Y010421D01*
X072382Y010303D02*
X070315Y010303D01*
X060551Y010303D02*
X058799Y010303D01*
X084389Y010303D02*
X086141Y010303D01*
X109980Y010303D02*
X111889Y010303D01*
X123563Y010303D02*
X123563Y007330D01*
X123543Y007311D01*
X123543Y006020D01*
X123563Y006000D01*
X110728Y005863D02*
X110728Y006779D01*
X092834Y005421D02*
X092519Y005421D01*
X092401Y005303D01*
X091605Y005303D01*
X091603Y005305D01*
X094291Y004900D02*
X094291Y004200D01*
X091023Y004319D02*
X090354Y004319D01*
X090334Y004338D01*
X110728Y004743D02*
X110748Y004723D01*
X110748Y004122D01*
X123543Y004161D02*
X123543Y004861D01*
X123563Y004881D01*
X146181Y004959D02*
X146181Y004161D01*
X162145Y004299D02*
X162165Y004279D01*
X162145Y004299D02*
X162145Y004920D01*
X171555Y004920D02*
X171555Y004299D01*
X171535Y004279D01*
X187342Y004141D02*
X187362Y004122D01*
X187342Y004141D02*
X187342Y004822D01*
X197126Y004822D02*
X197126Y004200D01*
X201106Y004539D02*
X201106Y004984D01*
X200630Y005460D01*
X199960Y005460D01*
X199842Y005460D01*
X199803Y005460D01*
X199567Y005224D01*
X199567Y005027D01*
X203106Y004984D02*
X203464Y005342D01*
X203582Y005342D01*
X207834Y005185D02*
X207834Y004948D01*
X203106Y004984D02*
X203106Y004539D01*
X205630Y004319D02*
X205630Y007311D01*
X205315Y007626D01*
X205315Y008570D01*
X204330Y008885D02*
X201839Y008885D01*
X201299Y009515D02*
X200719Y008936D01*
X200719Y008885D01*
X204330Y008885D02*
X205669Y010224D01*
X206315Y010224D01*
X204315Y010224D02*
X203700Y010224D01*
X203031Y009555D01*
X202047Y009830D02*
X201732Y009515D01*
X201299Y009515D01*
X202047Y009830D02*
X202047Y010421D01*
X200334Y010303D02*
X197677Y010303D01*
X197126Y009752D01*
X197126Y005941D01*
X197804Y005941D01*
X197834Y005972D01*
X201260Y006248D02*
X201417Y006090D01*
X201417Y005854D01*
X202834Y005618D02*
X203106Y005889D01*
X203106Y006854D01*
X204106Y006854D02*
X204246Y006714D01*
X204246Y006596D01*
X204094Y006444D01*
X204094Y006366D01*
X204567Y005893D01*
X201260Y006248D02*
X201260Y006700D01*
X201106Y006854D01*
X204246Y006714D02*
X204319Y006641D01*
X209571Y006854D02*
X209571Y005543D01*
X209567Y005539D01*
X209409Y005145D02*
X209015Y005539D01*
X208189Y005539D01*
X207834Y005185D01*
X209409Y005145D02*
X209409Y004700D01*
X209571Y004539D01*
X211417Y004693D02*
X211571Y004539D01*
X211417Y004693D02*
X211417Y005145D01*
X211181Y005381D01*
X211063Y005381D01*
X216073Y005324D02*
X216073Y004840D01*
X216496Y004417D01*
X216732Y004653D01*
X216732Y004673D01*
X217165Y005106D01*
X217165Y010342D01*
X213937Y010303D02*
X212342Y010303D01*
X222716Y009004D02*
X224015Y010303D01*
X225925Y010303D01*
X227756Y010421D02*
X227756Y009397D01*
X227283Y008925D01*
X225334Y008925D01*
X222716Y009004D02*
X222716Y006040D01*
X222705Y006051D01*
X221732Y006051D01*
X221458Y006324D01*
X218493Y006324D01*
X216073Y006324D02*
X215352Y006324D01*
X215039Y006011D01*
X212559Y005893D02*
X212559Y006842D01*
X212571Y006854D01*
X211571Y006854D02*
X211571Y005897D01*
X211574Y005893D01*
X215236Y005578D02*
X215482Y005824D01*
X216073Y005824D01*
X215236Y005578D02*
X215236Y004279D01*
X217598Y004417D02*
X217697Y004319D01*
X218307Y004319D01*
X217598Y004417D02*
X217598Y008570D01*
X217852Y008824D01*
X218493Y008824D01*
X216073Y008824D02*
X216071Y008826D01*
X214142Y008826D01*
X213023Y008826D02*
X212834Y008638D01*
X212834Y007862D01*
X214330Y007822D02*
X214828Y007324D01*
X216073Y007324D01*
X218493Y007324D02*
X220931Y007324D01*
X220945Y007311D01*
X220472Y007783D02*
X220431Y007824D01*
X218493Y007824D01*
X216073Y007824D02*
X215116Y007824D01*
X215078Y007862D01*
X216073Y008324D02*
X216801Y008324D01*
X216811Y008334D01*
X238897Y008905D02*
X238917Y008925D01*
X238897Y008905D02*
X238897Y006799D01*
X238917Y006779D01*
X238917Y006040D01*
X248937Y006099D02*
X248976Y006059D01*
X248937Y006099D02*
X248937Y007311D01*
X248937Y009200D01*
X250039Y010303D01*
X251909Y010303D01*
X253819Y010421D02*
X253819Y009555D01*
X253189Y008925D01*
X251122Y008925D01*
X264704Y008925D02*
X264704Y007763D01*
X264724Y007744D01*
X264724Y006138D01*
X264704Y006119D01*
X274429Y006040D02*
X274448Y006059D01*
X274448Y008059D01*
X274448Y009633D01*
X275118Y010303D01*
X277500Y010303D01*
X279330Y010381D02*
X279330Y009555D01*
X278700Y008925D01*
X276909Y008925D01*
X290492Y008925D02*
X290492Y007567D01*
X290472Y007547D01*
X290472Y006079D01*
X303484Y006119D02*
X303504Y006138D01*
X303504Y007074D01*
X303484Y007094D01*
X303484Y010303D01*
X291732Y010303D02*
X289901Y010303D01*
X315885Y010303D02*
X317480Y010303D01*
X320748Y010421D02*
X320748Y005067D01*
X321299Y004515D01*
X321427Y004644D01*
X321427Y005443D01*
X323031Y005421D02*
X323826Y005421D01*
X323847Y005443D01*
X323869Y005421D01*
X319429Y005314D02*
X319429Y004259D01*
X319448Y004240D01*
X321299Y004515D02*
X321437Y004378D01*
X322539Y004378D02*
X322716Y004555D01*
X322716Y008452D01*
X321437Y008452D01*
X321427Y008443D01*
X322716Y008452D02*
X323206Y008943D01*
X323847Y008943D01*
X321427Y008943D02*
X321378Y008943D01*
X321378Y009476D01*
X326850Y009594D02*
X326850Y006720D01*
X325551Y007193D02*
X325301Y006943D01*
X323847Y006943D01*
X322283Y007114D02*
X322112Y006943D01*
X321427Y006943D01*
X322045Y006443D02*
X322283Y006681D01*
X322045Y006443D02*
X321427Y006443D01*
X320315Y006444D02*
X320304Y006433D01*
X319429Y006433D01*
X318543Y006366D02*
X318534Y006374D01*
X318534Y008944D01*
X319654Y008944D02*
X319685Y008975D01*
X319685Y009712D01*
X326850Y009594D02*
X327559Y010303D01*
X329468Y010303D01*
X331614Y010381D02*
X331614Y009437D01*
X331102Y008925D01*
X328878Y008925D01*
X342460Y008925D02*
X342460Y006020D01*
X325267Y006020D01*
X324844Y006443D01*
X323847Y006443D01*
X322283Y006248D02*
X321978Y005943D01*
X321427Y005943D01*
X323031Y005933D02*
X323857Y005933D01*
X323847Y005943D01*
X303484Y004999D02*
X303484Y004259D01*
X303504Y004240D01*
X290472Y004240D02*
X290472Y004959D01*
X274429Y004920D02*
X274429Y004259D01*
X274409Y004240D01*
X264724Y004240D02*
X264704Y004259D01*
X264704Y004999D01*
X248976Y004940D02*
X248976Y004161D01*
X238917Y004220D02*
X238897Y004200D01*
X238917Y004220D02*
X238917Y004920D01*
X222716Y004920D02*
X222716Y004240D01*
X219330Y005421D02*
X219212Y005303D01*
X218515Y005303D01*
X218493Y005324D01*
X219330Y005421D02*
X220826Y005421D01*
X219409Y005933D02*
X219291Y005815D01*
X218503Y005815D01*
X218493Y005824D01*
X219409Y005933D02*
X221063Y005933D01*
X214947Y006824D02*
X214763Y006641D01*
X214947Y006824D02*
X216073Y006824D01*
X218493Y006824D02*
X221628Y006824D01*
X221653Y006799D01*
X188897Y005972D02*
X187373Y005972D01*
X187342Y005941D01*
X187342Y008925D01*
X173760Y008925D02*
X172204Y008925D01*
X171693Y009437D01*
X171693Y010381D01*
X174744Y010303D02*
X175118Y010303D01*
X175433Y009988D01*
X175433Y007271D01*
X175000Y006838D01*
X171574Y006838D01*
X171555Y006819D01*
X171555Y006040D01*
X162145Y006040D02*
X162145Y008925D01*
X162263Y009043D01*
X164409Y009043D01*
X151141Y009633D02*
X151141Y010381D01*
X149153Y010303D02*
X147362Y010303D01*
X146181Y009122D01*
X146181Y006956D01*
X146181Y006079D01*
X148563Y008925D02*
X150433Y008925D01*
X151141Y009633D01*
X161161Y010303D02*
X162952Y010303D01*
X186752Y010303D02*
X188464Y010303D01*
X238326Y010303D02*
X240039Y010303D01*
X263917Y010303D02*
X265787Y010303D01*
X322128Y007943D02*
X322283Y008098D01*
X322128Y007943D02*
X321427Y007943D01*
X323847Y007943D02*
X325198Y007943D01*
X325511Y008256D01*
X325551Y007744D02*
X325250Y007443D01*
X323847Y007443D01*
X322283Y007586D02*
X322139Y007443D01*
X321427Y007443D01*
X352795Y007193D02*
X352795Y009240D01*
X353858Y010303D01*
X355649Y010303D01*
X357637Y010421D02*
X357677Y010381D01*
X357677Y009358D01*
X357244Y008925D01*
X355256Y008925D01*
X368838Y008925D02*
X368838Y007724D01*
X368819Y007704D01*
X368819Y006079D01*
X368838Y006059D01*
X378169Y006464D02*
X378169Y004299D01*
X378149Y004279D01*
X380315Y004240D02*
X380354Y004279D01*
X380354Y004959D01*
X368838Y004940D02*
X368838Y004299D01*
X368819Y004279D01*
X352795Y004240D02*
X352795Y004940D01*
X342460Y004900D02*
X342460Y004259D01*
X342441Y004240D01*
X323149Y004397D02*
X323130Y004378D01*
X322539Y004378D01*
X352795Y006059D02*
X352795Y007193D01*
X378169Y007567D02*
X378169Y010362D01*
X378189Y010381D01*
X381437Y009909D02*
X381830Y010303D01*
X381437Y009909D02*
X380787Y009909D01*
X380315Y009437D01*
X380315Y008256D01*
X380315Y006119D01*
X380354Y006079D01*
X370000Y010303D02*
X368248Y010303D01*
X343779Y010303D02*
X342067Y010303D01*
X137323Y010303D02*
X135571Y010303D01*
X030630Y010736D02*
X021240Y010736D01*
X015437Y004472D02*
X015630Y004279D01*
X017874Y004279D01*
X015437Y004472D02*
X014724Y004472D01*
X012677Y004472D02*
X010792Y004472D01*
X010649Y004330D01*
X009291Y004319D02*
X008504Y004319D01*
X014252Y004043D02*
X020527Y004043D01*
D25*
X005846Y004456D02*
X005846Y007311D01*
X005866Y007330D02*
X005866Y008413D01*
X004846Y008964D02*
X004846Y009283D01*
X005000Y009437D01*
X005551Y009437D01*
X190511Y007822D02*
X190511Y007035D01*
X190689Y006858D01*
X190728Y006819D01*
X191968Y006819D01*
X192854Y007704D01*
X193661Y007704D01*
X193779Y007586D01*
X193779Y007018D01*
X193405Y007018D02*
X193405Y004259D01*
X193425Y004240D01*
X191968Y004240D02*
X191968Y005716D01*
X192637Y006287D02*
X193031Y005893D01*
X193031Y005674D01*
X193779Y005674D02*
X193779Y005933D01*
X194212Y006366D01*
X194389Y006366D01*
X194980Y006956D01*
X195000Y006956D01*
X195984Y007941D01*
X195984Y010500D01*
X213425Y007035D02*
X213425Y004712D01*
X213263Y004551D01*
X212559Y004551D01*
X212571Y004539D01*
X210571Y004539D02*
X210571Y005598D01*
X210590Y005618D01*
X210590Y006834D01*
X210571Y006854D01*
X205118Y006838D02*
X205118Y004752D01*
X204905Y004539D01*
X204106Y004539D01*
X202106Y004539D02*
X202106Y005500D01*
X201102Y005500D01*
X200826Y005775D01*
X199724Y005775D01*
X198976Y005027D01*
X202106Y005500D02*
X202106Y006854D01*
X192500Y006287D02*
X191968Y006819D01*
X192500Y006287D02*
X192637Y006287D01*
X194980Y005854D02*
X194980Y004259D01*
X195000Y004240D01*
X190708Y004240D02*
X190689Y004259D01*
X190689Y005756D01*
D26*
X198976Y005027D03*
X210590Y005618D03*
X205118Y006838D03*
X213425Y007035D03*
X190511Y007822D03*
X195984Y010500D03*
X195000Y004240D03*
X193425Y004240D03*
X191968Y004240D03*
X190708Y004240D03*
X005866Y008413D03*
X005551Y009437D03*
D27*
X013228Y010381D03*
X009409Y010421D03*
X005236Y010460D03*
X018110Y010381D03*
X025590Y010381D03*
X027795Y010342D03*
X034448Y010342D03*
X035118Y010342D03*
X048543Y010381D03*
X060551Y010303D03*
X074330Y010421D03*
X086141Y010303D03*
X090433Y010381D03*
X099803Y010421D03*
X111889Y010303D03*
X137323Y010303D03*
X151141Y010381D03*
X162952Y010303D03*
X171693Y010381D03*
X188464Y010303D03*
X202047Y010421D03*
X213937Y010303D03*
X217165Y010342D03*
X227756Y010421D03*
X240039Y010303D03*
X253819Y010421D03*
X265787Y010303D03*
X279330Y010381D03*
X291732Y010303D03*
X317480Y010303D03*
X320748Y010421D03*
X331614Y010381D03*
X319685Y009712D03*
X321378Y009476D03*
X343779Y010303D03*
X357637Y010421D03*
X370000Y010303D03*
X378189Y010381D03*
X380315Y008256D03*
X368819Y007704D03*
X352795Y007193D03*
X326850Y006720D03*
X322283Y006681D03*
X320315Y006444D03*
X318543Y006366D03*
X322283Y006248D03*
X323031Y005933D03*
X323031Y005421D03*
X323149Y004397D03*
X319448Y004240D03*
X303504Y004240D03*
X290472Y004240D03*
X274409Y004240D03*
X264724Y004240D03*
X248976Y004161D03*
X238897Y004200D03*
X222716Y004240D03*
X218307Y004319D03*
X215236Y004279D03*
X205630Y004319D03*
X197126Y004200D03*
X187362Y004122D03*
X171535Y004279D03*
X162165Y004279D03*
X146181Y004161D03*
X123543Y004161D03*
X110748Y004122D03*
X094291Y004200D03*
X091023Y004319D03*
X088307Y004358D03*
X085157Y004161D03*
X068897Y004161D03*
X059527Y004161D03*
X043031Y004161D03*
X036850Y004397D03*
X033779Y004358D03*
X026141Y004319D03*
X022441Y004279D03*
X019724Y004673D03*
X008504Y004319D03*
X038425Y005421D03*
X038189Y005933D03*
X027992Y006208D03*
X038228Y006444D03*
X038740Y006484D03*
X038425Y006838D03*
X036574Y006759D03*
X035787Y006956D03*
X031063Y006878D03*
X029015Y006563D03*
X022834Y006956D03*
X015511Y006956D03*
X013504Y006956D03*
X008700Y006622D03*
X004842Y007193D03*
X016102Y007311D03*
X022480Y007271D03*
X021889Y007586D03*
X020708Y007822D03*
X019055Y007704D03*
X030748Y007311D03*
X032126Y007350D03*
X036574Y007232D03*
X043071Y007311D03*
X035905Y007586D03*
X033937Y007626D03*
X032303Y007921D03*
X035748Y007941D03*
X036653Y007941D03*
X034291Y008334D03*
X030748Y008334D03*
X021929Y008374D03*
X016102Y008492D03*
X015118Y008531D03*
X012244Y008492D03*
X027716Y009161D03*
X031181Y009476D03*
X088385Y008295D03*
X088425Y007783D03*
X092441Y007783D03*
X092441Y007311D03*
X088425Y007311D03*
X088425Y006878D03*
X092441Y006799D03*
X085177Y006641D03*
X087323Y006366D03*
X088425Y006326D03*
X092795Y005933D03*
X092834Y005421D03*
X110748Y006799D03*
X123543Y007311D03*
X146181Y006956D03*
X171574Y006838D03*
X188897Y005972D03*
X197834Y005972D03*
X201417Y005854D03*
X204567Y005893D03*
X202834Y005618D03*
X203582Y005342D03*
X199567Y005027D03*
X207834Y004948D03*
X211063Y005381D03*
X209567Y005539D03*
X211574Y005893D03*
X212559Y005893D03*
X215039Y006011D03*
X221063Y005933D03*
X220826Y005421D03*
X214763Y006641D03*
X221653Y006799D03*
X220945Y007311D03*
X220472Y007783D03*
X215078Y007862D03*
X214330Y007822D03*
X212834Y007862D03*
X216811Y008334D03*
X248937Y007311D03*
X238897Y006799D03*
X264724Y007744D03*
X274448Y008059D03*
X290472Y007547D03*
X303504Y007074D03*
X322283Y007114D03*
X325551Y007193D03*
X322283Y007586D03*
X325551Y007744D03*
X322283Y008098D03*
X325511Y008256D03*
X368819Y004279D03*
X378149Y004279D03*
X380315Y004240D03*
X352795Y004240D03*
X342441Y004240D03*
X203031Y009555D03*
X164409Y009043D03*
X068897Y006878D03*
X059330Y007311D03*
X013464Y005972D03*
M02*
